# xmcd
#
# Track frame offsets:
#	150
#	17691
#	36382
#	53384
#	70767
#	85847
#	103008
#	115240
#	130095
#	147430
#	164367
#	180954
#	198101
#	212870
#	230226
#	244629
#	259718
#	272102
#	287650
#	302834
#	319042
#	336239
#
# Disc length: 4662 seconds
#
# Revision: 1
# Processed by: cddbd v1.5.2PL0 Copyright (c) Steve Scherf et al.
# Submitted via: dBpowerAMP V4.0
#
DISCID=3c123416
DTITLE=Various Artist - ERG Nu Country Traxx Vol. 195 CAN
DYEAR=2010
DGENRE=Country
TTITLE0=Taylor Swift - Mine
TTITLE1=Sugarland - Stuck Like Glue
TTITLE2=Rascal Flatts - Why Wait
TTITLE3=Jason Aldean - My Kinda Party
TTITLE4=Shane Yellowbird - I Get That A Lot These Days
TTITLE5=Gwyneth Paltrow - Country Song
TTITLE6=Gord Bamford - Put Some Alcohol On It
TTITLE7=Brad Johner - The Trouble With Love
TTITLE8=Joey and Rory - This Song's For You
TTITLE9=Zac Brown Band - As She's Walking Away
TTITLE10=Craig Campbell - Family Man
TTITLE11=Luke Bryan - Someone Else Calling You Baby
TTITLE12=Gretchen Wilson - I Got Your Country Right Here
TTITLE13=Victoria Banks With Jason Blaine - Don't Leave The Leavin'
TTITLE14=Stealing Angels - He Better Be Dead
TTITLE15=Josh Gracin - Cover Girl
TTITLE16=Trailer Choir - Shakin' That Tailgate
TTITLE17=Clay Walker - Where Do I Go From You
TTITLE18=Adam Brand - Ready For Love
TTITLE19=Asley Gearing - What You Think About Us
TTITLE20=Alex J. Robinson - Girly Girl
TTITLE21=Chelsea Field - Things I Should've Said
EXTD=
EXTT0=
EXTT1=
EXTT2=
EXTT3=
EXTT4=
EXTT5=
EXTT6=
EXTT7=
EXTT8=
EXTT9=
EXTT10=
EXTT11=
EXTT12=
EXTT13=
EXTT14=
EXTT15=
EXTT16=
EXTT17=
EXTT18=
EXTT19=
EXTT20=
EXTT21=
PLAYORDER=
